<svg width="108" height="85" viewBox="0 0 108 85" fill="none" xmlns="http://www.w3.org/2000/svg">
<path d="M64.1794 33.4962C59.9327 34.0735 52.17 26.9642 52.17 26.9642C52.17 26.9642 44.4074 34.0735 40.1594 33.4962C37.058 33.0762 34.2674 29.8575 32.0114 25.2269C32.0114 25.2269 45.1594 26.9442 52.17 26.9642C59.1794 26.9442 72.3287 25.2269 72.3287 25.2269C70.0714 29.8575 67.2807 33.0762 64.1794 33.4962ZM36.014 17.1669C38.7767 14.8416 40.582 11.0162 40.582 6.68555H40.5927C41.9927 9.74155 46.6367 11.9896 52.17 12.0189C57.7034 11.9896 62.3474 9.74155 63.746 6.68555H63.758C63.758 11.0162 65.562 14.8416 68.3234 17.1669V17.3549H63.334L64.1794 24.4175C64.1794 24.4175 60.822 24.7922 58.1754 23.8069C54.6647 22.5055 52.17 20.2095 52.17 20.2095C52.17 20.2095 49.6754 22.5055 46.1647 23.8069C43.518 24.7922 40.1594 24.4175 40.1594 24.4175L41.0047 17.3549H36.014V17.1669ZM71.5807 2.51221C49.6234 -5.39712 25.4154 5.99088 17.506 27.9482C12.9567 40.5775 14.7954 53.9522 21.354 64.5415C27.4634 64.0309 33.634 62.7015 39.6554 60.7415H26.3167L32.5874 50.7549H61.13C62.1447 50.1322 63.1447 49.4949 64.126 48.8442C59.514 47.7615 54.034 44.5362 52.5554 43.6322H52.5327L51.7727 43.6389C49.8727 44.8002 41.5687 49.6709 36.766 49.1642C32.7887 48.7429 29.2087 45.5255 26.3167 40.8922C26.3167 40.8922 31.846 41.7029 38.2594 42.4055L39.126 34.9762H52.4234H52.6487H65.2647L66.0874 42.4029C69.0154 42.0842 71.758 41.7402 73.874 41.4642C82.494 34.0109 88.8874 25.5975 91.522 17.5322C86.7114 10.8562 79.9074 5.51221 71.5807 2.51221Z" fill="#767676"/>
<path d="M85.0563 74.1017C85.7696 73.4791 86.4656 72.8311 87.1376 72.1604H84.4456L85.0563 74.1017Z" fill="#767676"/>
<path d="M77.6227 62.935C77.1747 62.7376 76.7053 62.575 76.2227 62.4536V69.8296H81.3027L81.0773 64.9123C79.888 64.3523 78.6933 63.6403 77.6227 62.935Z" fill="#767676"/>
<path d="M62.0589 65.9963C59.0309 65.6136 56.3029 62.7149 54.0909 58.5336C42.6522 63.0683 31.7135 65.4269 22.8962 65.5363C22.5909 65.5336 22.2855 65.5309 21.9802 65.5256C21.9829 65.5309 21.9869 65.5349 21.9895 65.5403C12.8789 65.4909 6.16953 62.9576 3.74687 57.8496C1.66553 53.4643 3.05753 47.8323 7.11753 41.8389C7.75353 42.3363 8.55487 42.6349 9.4242 42.6349C11.4989 42.6349 13.1789 40.9549 13.1789 38.8829C13.1789 36.8069 11.4989 35.1283 9.4242 35.1283C7.3522 35.1283 5.67087 36.8069 5.67087 38.8829C5.67087 39.9736 6.14153 40.9563 6.88687 41.6416C0.717534 49.6483 -1.6398 57.4243 1.18287 63.3763C4.5562 70.4869 14.6215 73.5229 27.8002 72.5603C31.9869 76.6363 37.0855 79.9136 42.9415 82.0216C48.3362 83.9656 53.8669 84.7416 59.2575 84.4829L63.1229 72.1603H59.0429V69.8296H63.8549L65.2255 65.4563C64.0815 65.8816 62.9855 66.1123 62.0589 65.9963Z" fill="#767676"/>
<path d="M66.1618 72.1602L65.6338 83.6895C71.3845 82.5228 76.8351 80.1655 81.6205 76.7962L81.4085 72.1602H66.1618Z" fill="#767676"/>
<path d="M106.384 13.4714C102.938 6.20476 92.5004 3.19542 78.8951 4.35809C89.6978 3.75142 97.7738 6.24476 100.483 11.9581C105.802 23.1701 88.4578 42.5314 61.7458 55.2061C59.2391 56.3928 56.7391 57.4794 54.2618 58.4661C55.9978 58.7141 67.2871 60.2954 73.6898 60.3394L73.6831 60.3341C80.5858 60.3154 93.5338 58.4274 93.5338 58.4274C91.3124 62.6608 88.5644 65.6048 85.5098 65.9901C84.5844 66.1061 83.4871 65.8754 82.3418 65.4474L83.7164 69.8301H88.5271V70.7048C92.1551 66.7194 95.0778 61.9728 97.0178 56.5874C99.3498 50.1101 100.002 43.4381 99.1991 37.0448C106.46 28.3994 109.424 19.8781 106.384 13.4714Z" fill="#767676"/>
<path d="M69.9025 62.9715C68.8438 63.6661 67.6651 64.3661 66.4918 64.9208L66.2665 69.8301H71.3465V62.4635C70.8478 62.5928 70.3638 62.7621 69.9025 62.9715Z" fill="#767676"/>
<path d="M72.8011 68.0061H74.7692V64.0408H72.8011V68.0061Z" fill="#767676"/>
<path d="M64.1794 33.4962C59.9327 34.0735 52.17 26.9642 52.17 26.9642C52.17 26.9642 44.4074 34.0735 40.1594 33.4962C37.058 33.0762 34.2674 29.8575 32.0114 25.2269C32.0114 25.2269 45.1594 26.9442 52.17 26.9642C59.1794 26.9442 72.3287 25.2269 72.3287 25.2269C70.0714 29.8575 67.2807 33.0762 64.1794 33.4962ZM36.014 17.1669C38.7767 14.8416 40.582 11.0162 40.582 6.68555H40.5927C41.9927 9.74155 46.6367 11.9896 52.17 12.0189C57.7034 11.9896 62.3474 9.74155 63.746 6.68555H63.758C63.758 11.0162 65.562 14.8416 68.3234 17.1669V17.3549H63.334L64.1794 24.4175C64.1794 24.4175 60.822 24.7922 58.1754 23.8069C54.6647 22.5055 52.17 20.2095 52.17 20.2095C52.17 20.2095 49.6754 22.5055 46.1647 23.8069C43.518 24.7922 40.1594 24.4175 40.1594 24.4175L41.0047 17.3549H36.014V17.1669ZM71.5807 2.51221C49.6234 -5.39712 25.4154 5.99088 17.506 27.9482C12.9567 40.5775 14.7954 53.9522 21.354 64.5415C27.4634 64.0309 33.634 62.7015 39.6554 60.7415H26.3167L32.5874 50.7549H61.13C62.1447 50.1322 63.1447 49.4949 64.126 48.8442C59.514 47.7615 54.034 44.5362 52.5554 43.6322H52.5327L51.7727 43.6389C49.8727 44.8002 41.5687 49.6709 36.766 49.1642C32.7887 48.7429 29.2087 45.5255 26.3167 40.8922C26.3167 40.8922 31.846 41.7029 38.2594 42.4055L39.126 34.9762H52.4234H52.6487H65.2647L66.0874 42.4029C69.0154 42.0842 71.758 41.7402 73.874 41.4642C82.494 34.0109 88.8874 25.5975 91.522 17.5322C86.7114 10.8562 79.9074 5.51221 71.5807 2.51221Z" fill="#2BB06D"/>
<path d="M85.0563 74.1017C85.7696 73.4791 86.4656 72.8311 87.1376 72.1604H84.4456L85.0563 74.1017Z" fill="#D82258"/>
<path d="M77.6227 62.935C77.1747 62.7376 76.7053 62.575 76.2227 62.4536V69.8296H81.3027L81.0773 64.9123C79.888 64.3523 78.6933 63.6403 77.6227 62.935Z" fill="#D82258"/>
<path d="M62.0589 65.9963C59.0309 65.6136 56.3029 62.7149 54.0909 58.5336C42.6522 63.0683 31.7135 65.4269 22.8962 65.5363C22.5909 65.5336 22.2855 65.5309 21.9802 65.5256C21.9829 65.5309 21.9869 65.5349 21.9895 65.5403C12.8789 65.4909 6.16953 62.9576 3.74687 57.8496C1.66553 53.4643 3.05753 47.8323 7.11753 41.8389C7.75353 42.3363 8.55487 42.6349 9.4242 42.6349C11.4989 42.6349 13.1789 40.9549 13.1789 38.8829C13.1789 36.8069 11.4989 35.1283 9.4242 35.1283C7.3522 35.1283 5.67087 36.8069 5.67087 38.8829C5.67087 39.9736 6.14153 40.9563 6.88687 41.6416C0.717534 49.6483 -1.6398 57.4243 1.18287 63.3763C4.5562 70.4869 14.6215 73.5229 27.8002 72.5603C31.9869 76.6363 37.0855 79.9136 42.9415 82.0216C48.3362 83.9656 53.8669 84.7416 59.2575 84.4829L63.1229 72.1603H59.0429V69.8296H63.8549L65.2255 65.4563C64.0815 65.8816 62.9855 66.1123 62.0589 65.9963Z" fill="#D82258"/>
<path d="M66.1618 72.1602L65.6338 83.6895C71.3845 82.5228 76.8351 80.1655 81.6205 76.7962L81.4085 72.1602H66.1618Z" fill="#D82258"/>
<path d="M106.384 13.4714C102.938 6.20476 92.5004 3.19542 78.8951 4.35809C89.6978 3.75142 97.7738 6.24476 100.483 11.9581C105.802 23.1701 88.4578 42.5314 61.7458 55.2061C59.2391 56.3928 56.7391 57.4794 54.2618 58.4661C55.9978 58.7141 67.2871 60.2954 73.6898 60.3394L73.6831 60.3341C80.5858 60.3154 93.5338 58.4274 93.5338 58.4274C91.3124 62.6608 88.5644 65.6048 85.5098 65.9901C84.5844 66.1061 83.4871 65.8754 82.3418 65.4474L83.7164 69.8301H88.5271V70.7048C92.1551 66.7194 95.0778 61.9728 97.0178 56.5874C99.3498 50.1101 100.002 43.4381 99.1991 37.0448C106.46 28.3994 109.424 19.8781 106.384 13.4714Z" fill="#D82258"/>
<path d="M69.9025 62.9715C68.8438 63.6661 67.6651 64.3661 66.4918 64.9208L66.2665 69.8301H71.3465V62.4635C70.8478 62.5928 70.3638 62.7621 69.9025 62.9715Z" fill="#D82258"/>
<path d="M72.8011 68.0061H74.7692V64.0408H72.8011V68.0061Z" fill="#D82258"/>
</svg>
